<svg version="1.1" id="svg2" xml:space="preserve" viewBox="0 0 424.5227535 181.3961377027027" xmlns="http://www.w3.org/2000/svg" style="max-height: 500px" width="424.5227535" height="181.3961377027027"><metadata id="metadata8">image/svg+xml</metadata><defs id="defs6"><clipPath clipPathUnits="userSpaceOnUse" id="clipPath18"><path d="M 0,140.804 H 950.424 V 0 H 0 Z" id="path16"/></clipPath></defs><g id="g10" transform="matrix(1.3333333,0,0,-1.3333333,0,187.73867)"><g id="g12"><g id="g14" clip-path="url(#clipPath18)"><g id="g20" transform="translate(668.1897,116.9711)"><path d="M 0,0 V -3.441 C -0.077,-9.023 -4.206,-10.4 -9.176,-10.4 H -25.388 V 0 Z m 81.668,-62.475 6.424,-19.729 c 2.294,-7.952 7.417,-10.323 16.211,-10.246 h 5.276 l -9.864,29.975 z m -26.152,0 -6.194,-18.964 C 47.028,-89.315 41.599,-92.527 32.805,-92.45 h -5.276 l 9.941,29.975 z M 0,-24.852 v -3.441 c -0.077,-5.583 -4.206,-6.959 -9.176,-6.959 h -16.212 v 10.4 z M -43.281,1.682 -53.834,-22.099 c -3.517,-8.947 -10.935,-11.7 -23.705,-11.624 h -7.494 l 15.752,35.405 z m -89.315,-0.458 10.552,-23.782 c 3.518,-8.947 10.935,-11.7 23.705,-11.623 h 7.494 l -15.752,35.405 z m -41.523,0 10.553,-23.782 c 3.517,-8.947 11.011,-11.7 23.705,-11.623 h 7.57 L -148.12,1.224 Z m 88.092,-59.722 10.017,-22.482 c 3.441,-9.023 10.935,-11.7 23.629,-11.623 h 7.57 l -15.217,34.105 z M 228.029,-3.594 V -58.04 C 228.182,-69.204 218.7,-72.645 205.7,-72.492 V -3.594 Z M 121.967,-23.782 146.208,1.529 h 31.046 l 23.476,-25.311 h -13.459 c -7.34,0.153 -13.152,2.677 -16.517,6.194 l -8.641,8.794 c -3.058,-2.829 -6.117,-6.882 -9.252,-9.711 -4.742,-4.359 -10.935,-5.277 -17.512,-5.277 z m 13.994,-5.964 h 60.945 v -26.458 c -0.229,-10.247 -10.017,-12.312 -19.193,-12.235 h -20.417 v 9.023 h 11.394 c 3.135,0 5.047,1.3 5.047,4.359 v 15.599 H 151.79 c -2.676,-0.076 -3.823,-2.217 -3.823,-4.206 V -83.58 h 49.934 c -0.306,-7.265 -4.665,-9.176 -9.635,-9.176 l -49.782,-0.077 c -9.176,0.153 -13.152,4.053 -13.305,12.923 v 40.988 c 0.153,5.276 3.365,9.099 10.782,9.176 m 101.55,-46.646 V 2.371 h 22.406 v -79.604 c 0,-12.312 -12.771,-15.753 -22.406,-15.6 h -23.246 v 9.1 h 16.746 c 3.824,0 6.653,2.141 6.5,7.341 M -23.323,-55.21 h 21.258 v -24.929 c -0.076,-8.947 -8.029,-14.835 -21.258,-13.841 z m 102.544,47.257 -3.823,-6.27 h 32.04 v -31.352 c -0.076,-10.935 -7.8,-11.929 -14.529,-11.853 H 78.686 l -0.153,-24.164 c -0.382,-8.335 -7.264,-11.47 -16.211,-11.164 H 52.61 v 8.564 h 2.983 c 2.141,0 3.364,1.912 3.288,3.747 v 23.017 H 32.652 v 34.334 c 0,5.047 2.753,8.871 9.635,8.871 H 52.61 l 3.671,6.27 H 33.034 c -4.588,0.23 -6.576,-2.447 -6.576,-5.353 v -68.821 c 0,-9.253 -9.176,-13.153 -19.729,-12.923 v 86.027 c 0.153,5.658 3.824,9.711 13.306,9.711 h 90.156 V -7.953 Z M 52.457,-28.599 v -3.977 h 32.041 v -7.646 H 52.457 v -9.177 h 29.67 c 3.671,-0.153 5.735,1.836 5.659,5.353 v 20.8 H 57.275 c -3.441,-0.077 -4.97,-2.218 -4.818,-5.353 m -92.68,-22.176 h -136.649 v 8.947 h 136.649 z m -92.679,-7.723 -10.018,-22.482 c -3.441,-9.023 -10.935,-11.7 -23.629,-11.623 h -7.57 l 15.217,34.105 z M -306.18,1.682 h 26.381 l -9.711,-11.317 v -35.099 c -0.077,-10.17 -11.011,-16.058 -24.699,-15.064 v 39.152 h -10.782 z m 35.787,-70.121 v 10.476 h 24.776 v -10.476 h 53.375 v -9.1 h -53.375 v -6.041 c -0.306,-8.87 -10.323,-11.929 -24.776,-11.088 v 17.129 h -55.287 v 9.1 z m 3.441,29.287 -16.364,-0.076 16.364,9.252 V 1.988 h 24.776 v -18.123 l 23.17,13 h 30.664 l -53.834,-30.664 v -7.723 c 0.077,-2.677 1.606,-4.206 4.97,-4.359 h 44.964 v -9.329 h -60.869 c -7.264,0.229 -13.764,4.511 -13.841,12.082 z" style="fill:#535252;fill-opacity:1;fill-rule:evenodd;stroke:none" id="path22"/></g><g id="g24" transform="translate(102.5517,21.9207)"><path d="M 0,0 H -24.393 V 36.552 H -60.869 V 0 h -24.393 v 52.687 c 0,4.511 2.752,8.029 8.488,8.182 h 52.381 v 36.552 l 24.393,0 z" style="fill:#535252;fill-opacity:1;fill-rule:evenodd;stroke:none" id="path26"/></g><g id="g28" transform="translate(199.7432,82.7897)"><path d="m 0,0 c 0,-5.506 -0.306,-9.406 -0.841,-11.7 -0.994,-3.976 -3.135,-6.958 -6.347,-9.023 -3.823,-2.447 -9.559,-3.594 -17.129,-3.594 h -6.117 v -36.552 h -24.317 v 36.552 h -6.118 c -7.57,0 -13.305,1.147 -17.129,3.518 -3.212,1.988 -5.276,5.046 -6.27,9.099 -0.612,2.371 -0.918,6.271 -0.918,11.7 h 60.869 V 36.552 H 0 Z" style="fill:#535252;fill-opacity:1;fill-rule:evenodd;stroke:none" id="path30"/></g><g id="g32" transform="translate(296.3995,46.3142)"><path d="m 0,0 c 0,-5.582 -0.229,-9.482 -0.841,-11.776 -0.994,-3.977 -3.059,-6.959 -6.347,-9.023 -3.823,-2.371 -9.559,-3.594 -17.129,-3.594 h -36.552 c -7.57,0 -13.305,1.223 -17.129,3.594 -3.212,1.988 -5.276,4.97 -6.27,9.023 -0.612,2.37 -0.918,6.347 -0.918,11.776 v 12.158 24.317 h 16.211 c 5.583,0 7.877,-2.599 8.106,-8.411 V 22.405 0 h 36.552 V 12.158 H 0 Z" style="fill:#535252;fill-opacity:1;fill-rule:evenodd;stroke:none" id="path34"/></g><g id="g36" transform="translate(296.3995,82.7897)"><path d="m 0,0 h -24.317 v 12.159 h -60.869 c 0,5.582 0.229,9.482 0.841,11.776 0.994,3.976 3.059,6.958 6.347,9.023 3.824,2.37 9.559,3.594 17.129,3.594 h 36.552 c 7.57,0 13.306,-1.224 17.129,-3.594 3.212,-1.988 5.276,-4.971 6.27,-9.023 C -0.306,21.488 0,17.588 0,12.159 Z" style="fill:#535252;fill-opacity:1;fill-rule:evenodd;stroke:none" id="path38"/></g><g id="g40" transform="translate(33.5006,94.9482)"><path d="M 0,0 H -16.211 V 24.393 H 8.182 V 8.412 C 7.953,2.6 5.582,0.076 0,0" style="fill:#266383;fill-opacity:1;fill-rule:evenodd;stroke:none" id="path42"/></g><g id="g44" transform="translate(130.7687,94.9482)"><path d="M 0,0 H -16.211 V 24.393 H 8.106 V 8.412 C 7.876,2.6 5.506,0.076 0,0" style="fill:#266383;fill-opacity:1;fill-rule:evenodd;stroke:none" id="path46"/></g></g></g></g></svg>